<svg xmlns="http://www.w3.org/2000/svg" width="103.584" height="100" viewBox="0 0 103.584 100">
  <g id="Group_291" data-name="Group 291" transform="translate(-113 -2350)">
    <path id="Path_51" data-name="Path 51" d="M884.836,191.768c-20.87,12.588-18.22,23.188-33.126,15.569s-40.745-14.244-30.476,23.188,43.4,90.1,83.81,33.126S905.706,179.18,884.836,191.768Z" transform="translate(-705.885 2161.24)" fill="#ffd7e9"/>
    <g id="surveyor" transform="translate(141 2376)">
      <path id="Path_11" data-name="Path 11" d="M75.063,98.031a7.031,7.031,0,0,0-14.063,0,7.032,7.032,0,1,0,14.063,0Z" transform="translate(-55.281 -82.469)" fill="#fc3990"/>
      <path id="Path_12" data-name="Path 12" d="M243.813,392h-1.406A1.406,1.406,0,0,0,241,393.406v2.813a1.406,1.406,0,0,0,1.406,1.406h1.406a2.813,2.813,0,0,0,0-5.625Z" transform="translate(-218.406 -355.25)" fill="#fc3990"/>
      <path id="Path_13" data-name="Path 13" d="M36.091,475.3l.928-2.812h-1.8A9.225,9.225,0,0,1,31,471.5v2.391a1.393,1.393,0,0,0,1.406,1.406Z" transform="translate(-28.094 -427.296)" fill="#fc3990"/>
      <path id="Path_14" data-name="Path 14" d="M7.125,261.687H9.881l1.856-5.624H7.125a1.393,1.393,0,0,1-1.406-1.406v-5.625a1.406,1.406,0,0,1,2.813,0v4.218h4.134l1.575-4.668a1.368,1.368,0,0,1,1.322-.956h9.7A7.032,7.032,0,0,0,18.375,242H7.125A7.11,7.11,0,0,0,0,249.031v5.625A7.156,7.156,0,0,0,7.125,261.687Z" transform="translate(0 -219.312)" fill="#fc3990"/>
      <path id="Path_15" data-name="Path 15" d="M131.73,332h-9.3l-5.625,16.875h10.237a1.406,1.406,0,0,0,1.334-.961l.645-1.936a4.225,4.225,0,0,1-3.385-4.135v-2.812a4.223,4.223,0,0,1,4.219-4.219h1.406a5.562,5.562,0,0,1,1.414.2l.388-1.164A1.406,1.406,0,0,0,131.73,332Z" transform="translate(-105.855 -300.875)" fill="#fc3990"/>
      <path id="Path_16" data-name="Path 16" d="M262.188,0H245.219A4.223,4.223,0,0,0,241,4.219V15.562a4.3,4.3,0,0,0,4.219,4.313h1.406v4.219a1.406,1.406,0,0,0,2.4.994l5.213-5.213h7.949a4.3,4.3,0,0,0,4.219-4.313V4.219A4.223,4.223,0,0,0,262.188,0Zm-4.725,9.525-4.219,4.219a1.406,1.406,0,0,1-1.988,0l-2.109-2.109a1.406,1.406,0,1,1,1.989-1.989l1.115,1.115,3.225-3.225a1.406,1.406,0,1,1,1.988,1.989Z" transform="translate(-218.406 0)" fill="#fc3990"/>
    </g>
  </g>
</svg>
